<svg id="Line" height="512" viewBox="0 0 64 64" width="512" xmlns="http://www.w3.org/2000/svg"><path d="m55.1 47.446c5.032-3.869 7.9-9.276 7.9-14.946 0-11.306-11.217-20.5-25-20.5s-25 9.2-25 20.5 11.212 20.5 25 20.5a30.478 30.478 0 0 0 4.67-.36c4.716 4.2 11.135 7.342 19.088 9.329a1 1 0 0 0 1.029-1.587 69.036 69.036 0 0 1 -7.687-12.936zm-25.1-22.446h16a1 1 0 0 1 0 2h-16a1 1 0 0 1 0-2zm16 16h-16a1 1 0 0 1 0-2h16a1 1 0 0 1 0 2zm5-7h-26a1 1 0 0 1 0-2h26a1 1 0 1 1 0 2z" fill="#c4a2fc"/><g fill="#151a6a"><path d="m48 2h-44a3 3 0 0 0 -3 3v46a1 1 0 0 0 1.781.625l15.4-19.249a1 1 0 0 1 .78-.376h29.039a3 3 0 0 0 3-3v-24a3 3 0 0 0 -3-3zm1 27a1 1 0 0 1 -1 1h-29.039a2.986 2.986 0 0 0 -2.342 1.126l-13.619 17.023v-43.149a1 1 0 0 1 1-1h44a1 1 0 0 1 1 1z"/><path d="m18 11h16a1 1 0 0 0 0-2h-16a1 1 0 0 0 0 2z"/><path d="m42 16h-32a1 1 0 0 0 0 2h32a1 1 0 0 0 0-2z"/><path d="m34 23h-16a1 1 0 0 0 0 2h16a1 1 0 0 0 0-2z"/></g></svg>